<svg width="26" height="16" viewBox="0 0 26 16" fill="none" xmlns="http://www.w3.org/2000/svg">
<g clip-path="url(#clip0_23331_13168)">
<path d="M1.00103 0.0506363C0.448284 0.0506363 0 0.504003 0 1.06329V14.9367C0 15.496 0.44851 15.9494 1.00103 15.9494H24.0246C24.5774 15.9494 25.0256 15.496 25.0256 14.9367V1.06329C25.0256 0.504029 24.5771 0.0506363 24.0246 0.0506363H1.00103ZM14.9466 4.78876C15.5556 4.78876 16.0438 4.92486 16.355 5.05142L16.1423 6.40507L16.0015 6.33307C15.7116 6.20651 15.3391 6.08471 14.8253 6.09335C14.2103 6.09335 13.926 6.37089 13.926 6.63056C13.9224 6.92314 14.2582 7.1161 14.8073 7.40507C15.7137 7.85089 16.1326 8.39145 16.1267 9.10205C16.1145 10.3987 15.0425 11.2366 13.3911 11.2366C12.6865 11.2287 12.0078 11.0778 11.6408 10.9035L11.8614 9.50474L12.0639 9.60443C12.5799 9.83765 12.914 9.93198 13.5428 9.93198C13.9943 9.93198 14.479 9.74071 14.4828 9.322C14.4857 9.04859 14.2802 8.85365 13.6687 8.54747C13.0728 8.24864 12.2828 7.74805 12.2915 6.85048C12.3008 5.63628 13.3942 4.78876 14.9466 4.78876ZM2.21319 4.98735H4.74939C5.09092 5.00041 5.36665 5.11165 5.46185 5.48656L6.00851 8.34099C6.00858 8.34124 6.00841 8.34228 6.00851 8.34256L6.17272 9.1978L7.71258 4.98735H9.37836L6.90237 11.1503L5.23817 11.1519L3.91338 6.17879C4.70164 6.60124 5.37273 7.09003 5.76138 7.76266C5.66117 7.54983 5.52914 7.30957 5.36019 7.07279C5.16344 6.79704 4.73853 6.44102 4.56092 6.28955C3.94204 5.76178 3.10155 5.33552 2.19365 5.10998L2.21319 4.98735ZM10.0408 4.99446H11.6698L10.6507 11.148H9.02174L10.0408 4.99446ZM19.2416 4.99446H20.4757L21.7676 11.148H20.2864C20.2864 11.148 20.1395 10.441 20.0917 10.2255C19.8589 10.2255 18.2306 10.2231 18.0474 10.2231C17.9854 10.3897 17.7111 11.1479 17.7111 11.1479H16.0352L18.4056 5.50555C18.5734 5.10459 18.8595 4.99446 19.2416 4.99446ZM19.3628 6.64952C19.2827 6.87841 19.1431 7.24803 19.1524 7.2318C19.1524 7.2318 18.651 8.58471 18.5198 8.93593L19.8375 8.93512C19.7151 8.34835 19.5926 7.76161 19.4699 7.17489L19.3628 6.64957V6.64952Z" fill="#00349C"/>
</g>
<defs>
<clipPath id="clip0_23331_13168">
<rect width="25.0256" height="16" fill="white"/>
</clipPath>
</defs>
</svg>
