<svg width="24" height="24" viewBox="0 0 24 24" fill="none" xmlns="http://www.w3.org/2000/svg">
<path fill-rule="evenodd" clip-rule="evenodd" d="M15.3348 2.77581C14.3718 2.74039 13.7266 3.2847 13.5646 3.43321C13.2898 3.68511 13.2712 4.11209 13.5231 4.3869C13.775 4.6617 14.202 4.68027 14.4768 4.42836C14.5537 4.35789 14.8627 4.10678 15.2918 4.12517L15.2998 4.12551L15.3207 4.12578C15.4103 4.12578 15.5612 4.13271 15.7052 4.17875C15.8439 4.22307 15.9247 4.28567 15.97 4.36753C16.0186 4.45538 16.0356 4.57286 16.0166 4.69473C15.9972 4.8182 15.9467 4.91032 15.9032 4.95386C15.8587 4.99464 15.7575 5.03897 15.5625 5.05949C15.4958 5.06651 15.4392 5.06921 15.3749 5.0722C15.3497 5.07338 15.3219 5.07467 15.294 5.07628L15.2925 5.07637C15.2573 5.07839 15.1778 5.08296 15.0989 5.10023C15.0633 5.10804 14.9647 5.13088 14.8602 5.19649C14.7445 5.26913 14.5357 5.45706 14.5357 5.78078C14.5357 6.05752 14.692 6.2387 14.8001 6.32399C14.8965 6.39999 14.991 6.43326 15.0302 6.44607C15.1127 6.47304 15.1944 6.4842 15.2287 6.48889C15.2698 6.4945 15.3051 6.49857 15.3365 6.5022C15.385 6.50778 15.4283 6.51279 15.4878 6.52231C15.6707 6.55157 15.7948 6.59758 15.8674 6.65835L15.8733 6.66327L15.875 6.66466C15.9656 6.73828 16.0745 6.90646 16.1168 7.13652C16.1579 7.36033 16.1208 7.5595 16.0335 7.69485L16.0327 7.69605L16.0308 7.6991L16.03 7.70034C15.9403 7.8423 15.7601 7.95301 15.453 7.9765C15.142 8.00028 14.8032 7.92097 14.5703 7.79627C14.0792 7.53156 13.7334 6.87392 13.8484 6.09994C13.9031 5.7312 13.6486 5.38787 13.2798 5.33311C12.9111 5.27834 12.5678 5.53288 12.513 5.90162C12.3282 7.14631 12.8611 8.4092 13.9307 8.9851C14.3877 9.23017 14.9846 9.36627 15.5559 9.32257C16.1288 9.27875 16.7784 9.04103 17.1696 8.42398C17.4788 7.94304 17.5324 7.38289 17.4464 6.90289C17.6511 6.9148 17.8718 6.91007 18.1054 6.8805C18.2835 6.85784 18.4489 6.82254 18.6006 6.77991V8.6308C18.6006 9.00083 18.9006 9.30081 19.2706 9.30081H19.2806C19.6507 9.30081 19.9506 9.00083 19.9506 8.6308V4.05081H20.5406C20.9107 4.05081 21.2106 3.75084 21.2106 3.38081V3.37081C21.2106 3.00077 20.9107 2.70081 20.5406 2.70081H18.0006C17.6306 2.70081 17.3306 3.00077 17.3306 3.37081V3.38081C17.3306 3.75084 17.6306 4.05081 18.0006 4.05081H18.6006V5.34115C18.4244 5.42625 18.2026 5.50722 17.9357 5.54122C17.6364 5.57907 17.37 5.5515 17.1533 5.50255C17.4278 4.97963 17.4684 4.28728 17.1513 3.71404C16.8864 3.23538 16.4615 3.00318 16.1162 2.89282C15.7862 2.78736 15.4814 2.77642 15.3348 2.77581ZM10.2456 5.16529L13.6541 12.6557L14.0024 13.4321L14.003 13.4335L16.2406 18.3536C16.3338 18.5507 16.3121 18.762 16.2124 18.9309C16.1149 19.0964 15.9492 19.2138 15.758 19.2669C15.4012 19.3661 14.9612 19.2381 14.7868 18.8742L14.7841 18.8686L12.5085 13.8563H6.49694L4.21281 18.8666C4.12877 19.0585 3.96346 19.182 3.79471 19.2446C3.62364 19.308 3.42576 19.3191 3.23807 19.2669C2.85705 19.1611 2.57501 18.7717 2.75209 18.3612L2.75442 18.3559L4.99435 13.4307L5.35252 12.6539L5.35301 12.6528L8.7473 5.21482V5.19687L8.77025 5.14161C8.81263 5.0396 8.88532 4.95926 8.93178 4.91266L8.96333 4.88102L8.99486 4.86415L8.99572 4.86352L9.00742 4.85488C9.02644 4.84101 9.05865 4.81847 9.10321 4.7986C9.14418 4.77786 9.18974 4.75961 9.22039 4.74733C9.22246 4.7465 9.22447 4.7457 9.2264 4.74492C9.28543 4.72124 9.35541 4.71188 9.38028 4.70855C9.39895 4.70606 9.41614 4.70417 9.42813 4.70297L9.44294 4.70156L9.44747 4.70117L9.44893 4.70105L9.4618 4.70001H9.5029C9.58949 4.70001 9.6623 4.71189 9.73702 4.73137C9.7995 4.74505 9.87231 4.77139 9.9391 4.81871C9.98401 4.84565 10.0228 4.87686 10.0444 4.89427C10.0461 4.89569 10.0493 4.89826 10.0493 4.89826C10.1356 4.9675 10.2057 5.062 10.2456 5.16529ZM7.11937 12.4785H11.8774L9.50244 7.24906L7.11937 12.4785Z" fill="#252E49"/>
</svg>
