<svg width="24" height="24" viewBox="0 0 24 24" fill="none" xmlns="http://www.w3.org/2000/svg">
<path d="M22 6C22 4.34315 20.6569 3 19 3H5C3.34315 3 2 4.34315 2 6V19.3787C2 20.715 3.61571 21.3843 4.56066 20.4393L6.12132 18.8787C6.68393 18.3161 7.44699 18 8.24264 18H19C20.6569 18 22 16.6569 22 15V6Z" stroke="#252E49" stroke-width="1.5"/>
<path d="M10 8.875C10 8.50416 10.1173 8.14165 10.3371 7.83331C10.5568 7.52496 10.8692 7.28464 11.2346 7.14273C11.6001 7.00081 12.0022 6.96368 12.3902 7.03603C12.7781 7.10838 13.1345 7.28695 13.4142 7.54918C13.6939 7.8114 13.8844 8.14549 13.9616 8.50921C14.0387 8.87292 13.9991 9.24992 13.8478 9.59253C13.6964 9.93514 13.44 10.228 13.1111 10.434V10.434C12.5634 10.7771 12 11.274 12 11.9203V12" stroke="#252E49" stroke-width="1.5" stroke-linejoin="round"/>
<rect x="11" y="13" width="2" height="2" rx="1" fill="#252E49"/>
</svg>
