<svg width="16" height="17" viewBox="0 0 16 17" fill="none" xmlns="http://www.w3.org/2000/svg">
<path d="M7.33341 1.83301C9.13322 1.83301 10.7664 2.54622 11.9659 3.70543L11.0229 4.64841C10.0649 3.73041 8.76503 3.16634 7.33341 3.16634C4.3879 3.16634 2.00008 5.55416 2.00008 8.49967C2.00008 11.4452 4.3879 13.833 7.33341 13.833C10.224 13.833 12.5775 11.5334 12.6643 8.6639L13.9124 7.41576C13.9701 7.76852 14.0001 8.1306 14.0001 8.49967C14.0001 12.1816 11.0153 15.1663 7.33341 15.1663C3.65152 15.1663 0.666748 12.1816 0.666748 8.49967C0.666748 4.81778 3.65152 1.83301 7.33341 1.83301Z" fill="#00929D"/>
<path d="M9.21908 10.2235L15.1382 4.30442L14.1954 3.36161L8.27627 9.28073C7.75558 9.80143 6.91135 9.80143 6.39066 9.28073L3.80487 6.69495L2.86206 7.63776L5.44785 10.2235C6.48924 11.2649 8.17768 11.2649 9.21908 10.2235Z" fill="#00929D"/>
</svg>
