<svg width="122" height="25" viewBox="0 0 122 25" fill="none" xmlns="http://www.w3.org/2000/svg">
<path d="M62.248 7.36236C61.9913 6.81906 61.6534 6.33392 61.2361 5.91025C60.8171 5.48659 60.3086 5.14931 59.7091 4.90009C59.1079 4.65088 58.4074 4.52627 57.6042 4.52627C56.5111 4.52627 55.5423 4.76718 54.6977 5.249C54.06 5.61286 53.5251 6.10797 53.0962 6.73267V0.375977H51.4434V18.3196H53.2817V11.1421C53.2817 10.3779 53.3678 9.69669 53.5417 9.09857C53.7156 8.50045 53.9706 7.99205 54.3052 7.5717C54.6397 7.15302 55.0537 6.8307 55.5473 6.6064C56.0391 6.38211 56.6088 6.26913 57.2547 6.26913C57.9586 6.26913 58.5564 6.39872 59.05 6.65624C59.5418 6.91377 59.9443 7.27762 60.2556 7.74615C60.567 8.21468 60.7922 8.76296 60.933 9.39099C61.0738 10.019 61.145 10.7052 61.145 11.4528V18.3179H62.9833V10.9162C62.9833 10.3098 62.9253 9.70168 62.8094 9.09027C62.6935 8.47885 62.5063 7.90233 62.2496 7.35738L62.248 7.36236Z" fill="#252E49"/>
<path d="M75.1956 5.41058C74.2599 4.79916 73.1287 4.49512 71.8055 4.49512C70.4822 4.49512 69.3941 4.78587 68.4452 5.36738C67.4962 5.94888 66.7626 6.77462 66.2409 7.84791C65.7192 8.91955 65.4575 10.1906 65.4575 11.6609C65.4575 13.1313 65.7225 14.3192 66.2525 15.3743C66.7824 16.4293 67.526 17.2484 68.4816 17.8299C69.4389 18.4114 70.57 18.7021 71.8784 18.7021C73.1867 18.7021 74.3443 18.3798 75.3744 17.7368C76.4046 17.0939 77.1863 16.1851 77.7162 15.0137L76.0154 14.3541C75.6013 15.1932 75.0366 15.8345 74.3195 16.2798C73.6024 16.725 72.7644 16.946 71.8038 16.946C70.3961 16.946 69.3097 16.4791 68.5429 15.5437C67.8556 14.7064 67.4797 13.56 67.4084 12.1112H77.9762C78.0176 10.5328 77.7974 9.17375 77.3171 8.03566C76.8368 6.89757 76.1296 6.02365 75.1923 5.41224L75.1956 5.41058ZM68.5446 7.58374C69.3097 6.64502 70.4143 6.1765 71.8552 6.1765C73.296 6.1765 74.2748 6.62176 74.9919 7.51064C75.5815 8.24167 75.9392 9.26512 76.0651 10.576H67.4482C67.5741 9.32992 67.9368 8.32973 68.5446 7.5854V7.58374Z" fill="#252E49"/>
<path d="M90.651 7.18666C90.2949 6.3144 89.6888 5.64816 88.8309 5.18627C87.973 4.72605 86.933 4.49512 85.7075 4.49512C84.2252 4.49512 83.0196 4.82741 82.0938 5.49198C81.1663 6.15656 80.5486 7.09196 80.2422 8.29651L82.0176 8.81987C82.2743 7.92269 82.7198 7.26641 83.3524 6.85105C83.9867 6.43569 84.7618 6.228 85.681 6.228C87.0141 6.228 87.9499 6.54867 88.4881 7.18832C88.9833 7.77814 89.2383 8.66369 89.2549 9.83667C88.8177 9.89814 88.344 9.95962 87.8223 10.0228C87.0307 10.1175 86.2242 10.2304 85.4011 10.3584C84.578 10.4879 83.8261 10.6342 83.1471 10.8003C82.4763 10.9748 81.8868 11.2273 81.3767 11.5596C80.8666 11.8919 80.4658 12.3172 80.171 12.8372C79.8762 13.3556 79.7305 13.982 79.7305 14.713C79.7305 15.444 79.8994 16.0887 80.2389 16.6951C80.5784 17.3015 81.0902 17.7867 81.7725 18.1539C82.4548 18.5194 83.3027 18.7021 84.313 18.7021C85.6545 18.7021 86.8055 18.3981 87.766 17.7933C88.4434 17.3663 88.9916 16.7998 89.4188 16.0987V18.3283H91.0452V9.96792C91.0452 9.46949 91.0203 8.97936 90.9706 8.49755C90.921 8.01573 90.8133 7.57876 90.6477 7.18832L90.651 7.18666ZM89.0611 13.5799C88.9452 14.2528 88.6935 14.8576 88.3043 15.3925C87.9151 15.9275 87.4017 16.3495 86.7641 16.6569C86.1265 16.9643 85.3812 17.1171 84.5283 17.1171C83.8079 17.1171 83.2299 16.9975 82.796 16.7566C82.3621 16.5157 82.0457 16.2116 81.852 15.8478C81.6566 15.4823 81.5605 15.1051 81.5605 14.713C81.5605 14.2312 81.6748 13.8291 81.9017 13.5035C82.1286 13.1795 82.4217 12.9203 82.7778 12.7243C83.1338 12.5299 83.5015 12.377 83.8824 12.269C84.4455 12.1195 85.0765 11.9899 85.777 11.8819C86.4759 11.7739 87.1897 11.6792 87.9134 11.5961C88.3755 11.543 88.8144 11.4898 89.2334 11.4366C89.2317 11.6377 89.2284 11.8753 89.2234 12.1494C89.2151 12.6678 89.1605 13.1446 89.0628 13.5766L89.0611 13.5799Z" fill="#252E49"/>
<path d="M96.3529 0H94.5278V18.3174H96.3529V0Z" fill="#252E49"/>
<path d="M103.269 1.13184H101.456V4.87009H98.5859V6.44016H101.456V13.4548C101.456 14.111 101.466 14.6942 101.487 15.2059C101.507 15.716 101.638 16.2211 101.878 16.7195C102.176 17.3176 102.614 17.7579 103.188 18.0404C103.763 18.3228 104.419 18.4807 105.151 18.5139C105.883 18.5471 106.626 18.484 107.38 18.3278V16.7212C106.419 16.879 105.615 16.9039 104.964 16.796C104.313 16.688 103.839 16.3557 103.541 15.7991C103.384 15.5083 103.299 15.1744 103.286 14.7956C103.273 14.4168 103.268 13.9466 103.268 13.3817V6.44182H107.378V4.87175H103.268V1.1335L103.269 1.13184Z" fill="#252E49"/>
<path d="M121.378 9.09525C121.262 8.48384 121.074 7.90732 120.818 7.36237C120.561 6.81907 120.223 6.33392 119.806 5.91025C119.387 5.48659 118.878 5.14932 118.279 4.9001C117.678 4.65089 116.977 4.52628 116.174 4.52628C115.081 4.52628 114.112 4.76718 113.267 5.249C112.63 5.61286 112.095 6.10797 111.666 6.73267V0.375977H110.013V18.3196H111.851V11.1422C111.851 10.3779 111.938 9.69669 112.112 9.09857C112.285 8.50045 112.54 7.99205 112.875 7.5717C113.21 7.15302 113.624 6.8307 114.117 6.6064C114.609 6.38211 115.179 6.26913 115.825 6.26913C116.528 6.26913 117.126 6.39873 117.62 6.65625C118.112 6.91378 118.514 7.27763 118.825 7.74616C119.137 8.21469 119.362 8.76296 119.503 9.39099C119.644 10.019 119.715 10.7052 119.715 11.4528V18.3179H121.553V10.9162C121.553 10.3098 121.495 9.70168 121.379 9.09027L121.378 9.09525Z" fill="#252E49"/>
<path d="M24.6329 6.93745C24.1609 6.04026 23.4654 5.40891 22.5462 5.04339C21.627 4.67787 20.5754 4.49512 19.3913 4.49512C17.7765 4.49512 16.5013 4.84402 15.5656 5.54183C14.6299 6.23963 13.9923 7.14513 13.6528 8.2583L16.7083 9.23024C16.9236 8.6155 17.2996 8.18852 17.8395 7.94761C18.3777 7.7067 18.8961 7.5854 19.3929 7.5854C20.2872 7.5854 20.9248 7.77149 21.3058 8.14697C21.6039 8.43939 21.7844 8.86472 21.849 9.41965C21.2793 9.50604 20.736 9.58578 20.226 9.66221C19.3565 9.7918 18.5781 9.92638 17.8908 10.0676C17.2035 10.2088 16.6123 10.3716 16.1154 10.5544C15.395 10.8202 14.822 11.1509 14.3947 11.5446C13.9674 11.9401 13.6594 12.3936 13.4689 12.9087C13.2785 13.4237 13.1841 13.9936 13.1841 14.6166C13.1841 15.3643 13.3563 16.0472 13.6991 16.6669C14.042 17.2866 14.5471 17.78 15.2145 18.1489C15.8803 18.5177 16.6951 18.7038 17.6556 18.7038C18.8149 18.7038 19.7738 18.5028 20.5307 18.099C21.1286 17.7817 21.6933 17.3049 22.2266 16.6752V18.33H25.1828V10.1058C25.1828 9.49109 25.1579 8.9345 25.1082 8.43606C25.0586 7.93763 24.9012 7.4392 24.6362 6.94076L24.6329 6.93745ZM21.478 14.2395C21.3869 14.4306 21.2147 14.6682 20.9629 14.9506C20.7112 15.233 20.3717 15.4839 19.9444 15.7049C19.5171 15.9259 18.9938 16.0355 18.3727 16.0355C17.9836 16.0355 17.6474 15.9774 17.3658 15.8611C17.0843 15.7448 16.8673 15.577 16.7133 15.356C16.5593 15.1367 16.4831 14.8725 16.4831 14.5651C16.4831 14.3408 16.5311 14.1382 16.6255 13.9554C16.7199 13.7726 16.869 13.6048 17.0727 13.4503C17.2747 13.2958 17.543 13.1529 17.8742 13.02C18.1641 12.912 18.4986 12.8123 18.8795 12.7209C19.2604 12.6296 19.7622 12.5282 20.3833 12.4152C20.7824 12.3438 21.261 12.2607 21.8175 12.166C21.8109 12.4036 21.7993 12.6661 21.7811 12.9635C21.7513 13.4503 21.6502 13.8756 21.4763 14.2412L21.478 14.2395Z" fill="#252E49"/>
<path d="M38.1779 5.41722C37.2256 4.80248 36.1077 4.49512 34.8242 4.49512C33.5407 4.49512 32.4758 4.80747 31.6063 5.42885C31.5252 5.487 31.4474 5.54847 31.3712 5.6116V4.86894H28.3901V24.3079H31.7935V17.8532C32.6646 18.4164 33.7312 18.7005 34.9981 18.7005C36.2651 18.7005 37.3117 18.3881 38.2408 17.7668C39.1683 17.1437 39.8903 16.2964 40.4087 15.2247C40.9254 14.1531 41.1854 12.9436 41.1854 11.5978C41.1854 10.252 40.9221 9.0076 40.3971 7.94096C39.8705 6.87431 39.1318 6.03195 38.1795 5.41722H38.1779ZM37.2703 13.6597C37.0467 14.2794 36.7023 14.7712 36.2386 15.1367C35.7748 15.5022 35.1786 15.685 34.4499 15.685C33.7212 15.685 33.0936 15.5155 32.6431 15.1749C32.191 14.8343 31.8664 14.3575 31.6676 13.7427C31.4689 13.128 31.3695 12.4136 31.3695 11.5995C31.3695 10.7854 31.4689 10.0709 31.6676 9.45619C31.8664 8.84146 32.1827 8.36462 32.6182 8.02403C33.0522 7.68343 33.6219 7.51396 34.3257 7.51396C35.0793 7.51396 35.6987 7.69839 36.1822 8.06889C36.6658 8.43773 37.0252 8.93284 37.2571 9.5509C37.4889 10.1706 37.6049 10.8535 37.6049 11.6011C37.6049 12.3488 37.4939 13.0449 37.2703 13.663V13.6597Z" fill="#252E49"/>
<path d="M47.4799 15.2422H44.4111V18.3209H47.4799V15.2422Z" fill="#252E49"/>
<path d="M7.18282 13.0069H3.83936C3.83936 13.8044 3.84755 14.5179 3.86394 15.146C3.88033 15.7758 4.05242 16.394 4.38021 17.0024C4.74078 17.6518 5.26688 18.1221 5.96016 18.4147C6.6518 18.7074 7.44013 18.862 8.32025 18.8833C9.20201 18.9031 10.1002 18.8274 11.018 18.6548V15.8678C10.2313 15.9747 9.51341 16.0076 8.86766 15.9665C8.22027 15.9254 7.74826 15.6705 7.45488 15.2019C7.29918 14.9553 7.2156 14.6248 7.20249 14.2088C7.18937 13.7945 7.18446 13.5248 7.18446 13.0068L7.18282 13.0069Z" fill="#252E49"/>
<path fill-rule="evenodd" clip-rule="evenodd" d="M7.19167 0.768555H3.81077V4.13254H0.446777V7.51344H3.81077V10.8774H7.19167V7.51344H10.556V4.13254H7.19167V0.768555Z" fill="#2563EB"/>
</svg>
