<svg width="118" height="24" viewBox="0 0 118 24" fill="none" xmlns="http://www.w3.org/2000/svg">
<path d="M59.8386 7.12792C59.5901 6.60187 59.263 6.13213 58.8589 5.7219C58.4532 5.31168 57.9609 4.98511 57.3804 4.7438C56.7983 4.5025 56.12 4.38184 55.3422 4.38184C54.2839 4.38184 53.3458 4.61511 52.528 5.08164C51.9106 5.43395 51.3926 5.91334 50.9773 6.51822V0.363281H49.377V17.7374H51.1569V10.7877C51.1569 10.0477 51.2403 9.38816 51.4087 8.80903C51.577 8.22989 51.824 7.73762 52.1479 7.33062C52.4718 6.92522 52.8727 6.61313 53.3506 6.39596C53.8269 6.17878 54.3785 6.06939 55.0039 6.06939C55.6854 6.06939 56.2643 6.19486 56.7421 6.44422C57.2184 6.69357 57.6081 7.04587 57.9095 7.49953C58.211 7.95319 58.4291 8.48407 58.5654 9.09216C58.7017 9.70025 58.7707 10.3646 58.7707 11.0886V17.7358H60.5506V10.569C60.5506 9.98178 60.4945 9.39299 60.3822 8.80098C60.27 8.20898 60.0888 7.65076 59.8402 7.1231L59.8386 7.12792Z" fill="#252E49"/>
<path d="M72.3763 5.23796C71.4702 4.64596 70.375 4.35156 69.0937 4.35156C67.8125 4.35156 66.7589 4.63309 65.8401 5.19614C64.9213 5.75919 64.2109 6.55872 63.7058 7.59794C63.2006 8.63556 62.9473 9.86623 62.9473 11.2899C62.9473 12.7137 63.2038 13.8639 63.717 14.8854C64.2301 15.9069 64.9501 16.7 65.8754 17.2631C66.8022 17.8261 67.8975 18.1077 69.1643 18.1077C70.4311 18.1077 71.552 17.7956 72.5494 17.173C73.5469 16.5504 74.3037 15.6705 74.8169 14.5363L73.17 13.8977C72.7691 14.7101 72.2223 15.331 71.528 15.7622C70.8336 16.1933 70.0222 16.4073 69.0921 16.4073C67.7291 16.4073 66.6772 15.9552 65.9347 15.0495C65.2692 14.2387 64.9052 13.1287 64.8363 11.7259H75.0686C75.1087 10.1976 74.8955 8.8817 74.4304 7.77973C73.9654 6.67776 73.2807 5.83158 72.373 5.23958L72.3763 5.23796ZM65.9363 7.34215C66.6772 6.43323 67.7467 5.97958 69.1419 5.97958C70.537 5.97958 71.4847 6.41071 72.179 7.27137C72.7499 7.9792 73.0963 8.97017 73.2181 10.2394H64.8748C64.9966 9.03291 65.3478 8.06447 65.9363 7.34376V7.34215Z" fill="#252E49"/>
<path d="M87.3415 6.95768C86.9967 6.11311 86.4098 5.468 85.5792 5.02078C84.7485 4.57517 83.7415 4.35156 82.5549 4.35156C81.1197 4.35156 79.9523 4.67331 79.0559 5.31679C78.1579 5.96028 77.5597 6.86598 77.2631 8.0323L78.9821 8.53905C79.2307 7.67034 79.662 7.03489 80.2746 6.63272C80.8887 6.23054 81.6392 6.02945 82.5292 6.02945C83.8201 6.02945 84.7261 6.33994 85.2472 6.95929C85.7267 7.53038 85.9737 8.38783 85.9897 9.52358C85.5664 9.5831 85.1077 9.64262 84.6026 9.70375C83.8361 9.79545 83.0552 9.90484 82.2582 10.0287C81.4612 10.1542 80.7332 10.2958 80.0757 10.4566C79.4263 10.6255 78.8554 10.8701 78.3615 11.1918C77.8676 11.5136 77.4796 11.9254 77.1941 12.4289C76.9087 12.9308 76.7676 13.5373 76.7676 14.2451C76.7676 14.953 76.9311 15.5772 77.2599 16.1643C77.5886 16.7515 78.0841 17.2213 78.7448 17.5768C79.4055 17.9307 80.2265 18.1077 81.2047 18.1077C82.5035 18.1077 83.618 17.8133 84.5481 17.2277C85.204 16.8143 85.7347 16.2657 86.1485 15.5868V17.7457H87.7232V9.65066C87.7232 9.16805 87.6991 8.69348 87.651 8.22696C87.6029 7.76043 87.4987 7.33734 87.3383 6.95929L87.3415 6.95768ZM85.8021 13.148C85.6898 13.7995 85.4461 14.3851 85.0693 14.9031C84.6924 15.4211 84.1953 15.8297 83.5779 16.1273C82.9606 16.425 82.239 16.573 81.4131 16.573C80.7156 16.573 80.1559 16.4571 79.7358 16.2239C79.3156 15.9906 79.0094 15.6962 78.8217 15.3439C78.6325 14.99 78.5395 14.6248 78.5395 14.2451C78.5395 13.7786 78.6502 13.3893 78.8699 13.074C79.0895 12.7603 79.3734 12.5094 79.7181 12.3195C80.0629 12.1313 80.4189 11.9833 80.7877 11.8787C81.3329 11.7339 81.9439 11.6085 82.6222 11.5039C83.2989 11.3993 83.9901 11.3076 84.6908 11.2272C85.1382 11.1757 85.5632 11.1242 85.9689 11.0728C85.9673 11.2674 85.964 11.4975 85.9592 11.7629C85.9512 12.2648 85.8983 12.7265 85.8037 13.1448L85.8021 13.148Z" fill="#252E49"/>
<path d="M92.8609 0H91.0938V17.7361H92.8609V0Z" fill="#252E49"/>
<path d="M99.5583 1.09766H97.8024V4.71726H95.0234V6.2375H97.8024V13.0295C97.8024 13.6649 97.812 14.2296 97.8329 14.7251C97.8521 15.2189 97.9788 15.708 98.2113 16.1906C98.5 16.7697 98.9233 17.1961 99.4798 17.4695C100.036 17.743 100.671 17.8958 101.38 17.928C102.089 17.9602 102.809 17.8991 103.538 17.7478V16.1922C102.608 16.345 101.829 16.3692 101.199 16.2646C100.569 16.16 100.11 15.8383 99.8213 15.2994C99.669 15.0179 99.5872 14.6945 99.5744 14.3277C99.5615 13.9609 99.5567 13.5057 99.5567 12.9587V6.23911H103.537V4.71887H99.5567V1.09927L99.5583 1.09766Z" fill="#252E49"/>
<path d="M117.092 8.80581C116.979 8.21381 116.798 7.65559 116.55 7.12793C116.301 6.60188 115.974 6.13213 115.57 5.7219C115.164 5.31168 114.672 4.98512 114.091 4.74381C113.509 4.50251 112.831 4.38185 112.053 4.38185C110.995 4.38185 110.057 4.61511 109.239 5.08164C108.622 5.43395 108.104 5.91334 107.688 6.51822V0.363281H106.088V17.7374H107.868V10.7878C107.868 10.0477 107.951 9.38816 108.12 8.80903C108.288 8.22989 108.535 7.73762 108.859 7.33062C109.183 6.92522 109.584 6.61313 110.062 6.39596C110.538 6.17878 111.089 6.06939 111.715 6.06939C112.396 6.06939 112.975 6.19487 113.453 6.44423C113.929 6.69358 114.319 7.04588 114.62 7.49954C114.922 7.9532 115.14 8.48407 115.276 9.09216C115.413 9.70025 115.482 10.3647 115.482 11.0886V17.7358H117.262V10.569C117.262 9.98178 117.205 9.39299 117.093 8.80098L117.092 8.80581Z" fill="#252E49"/>
<path d="M23.4175 6.71637C22.9605 5.84767 22.287 5.23635 21.397 4.88244C20.507 4.52852 19.4888 4.35156 18.3422 4.35156C16.7787 4.35156 15.544 4.68939 14.638 5.36505C13.7319 6.04071 13.1146 6.91746 12.7858 7.9953L15.7444 8.93639C15.9529 8.34117 16.3169 7.92774 16.8397 7.69447C17.3608 7.46121 17.8627 7.34377 18.3438 7.34377C19.2097 7.34377 19.8271 7.52394 20.1959 7.88751C20.4846 8.17064 20.6594 8.58248 20.7219 9.11979C20.1703 9.20344 19.6443 9.28066 19.1504 9.35466C18.3085 9.48014 17.5549 9.61044 16.8894 9.74718C16.2239 9.88392 15.6514 10.0416 15.1703 10.2185C14.4728 10.4759 13.918 10.7961 13.5042 11.1773C13.0905 11.5602 12.7923 11.9994 12.6078 12.4981C12.4234 12.9968 12.332 13.5486 12.332 14.1518C12.332 14.8758 12.4988 15.5369 12.8307 16.137C13.1627 16.737 13.6518 17.2148 14.298 17.572C14.9426 17.9291 15.7316 18.1093 16.6617 18.1093C17.7842 18.1093 18.7126 17.9146 19.4455 17.5237C20.0243 17.2164 20.5712 16.7547 21.0875 16.145V17.7473H23.9499V9.78419C23.9499 9.18897 23.9258 8.65004 23.8777 8.16743C23.8296 7.68481 23.6773 7.2022 23.4207 6.71958L23.4175 6.71637ZM20.3627 13.7867C20.2745 13.9717 20.1077 14.2017 19.864 14.4752C19.6202 14.7487 19.2915 14.9916 18.8778 15.2055C18.4641 15.4195 17.9573 15.5257 17.356 15.5257C16.9792 15.5257 16.6536 15.4694 16.381 15.3568C16.1084 15.2442 15.8984 15.0817 15.7492 14.8677C15.6001 14.6554 15.5263 14.3996 15.5263 14.102C15.5263 13.8848 15.5728 13.6885 15.6642 13.5116C15.7556 13.3346 15.9 13.1721 16.0972 13.0225C16.2928 12.8729 16.5526 12.7346 16.8733 12.6059C17.154 12.5013 17.4779 12.4048 17.8467 12.3163C18.2155 12.2278 18.7014 12.1297 19.3027 12.0203C19.6892 11.9511 20.1526 11.8707 20.6914 11.779C20.685 12.009 20.6738 12.2632 20.6562 12.5512C20.6273 13.0225 20.5295 13.4344 20.3611 13.7883L20.3627 13.7867Z" fill="#252E49"/>
<path d="M36.5337 5.2444C35.6117 4.64917 34.5293 4.35156 33.2865 4.35156C32.0437 4.35156 31.0126 4.654 30.1708 5.25566C30.0922 5.31196 30.0168 5.37148 29.9431 5.43261V4.71352H27.0566V23.5355H30.352V17.2856C31.1955 17.831 32.2282 18.1061 33.4549 18.1061C34.6816 18.1061 35.6951 17.8036 36.5947 17.202C37.4927 16.5987 38.1918 15.7783 38.6937 14.7406C39.1941 13.703 39.4458 12.5319 39.4458 11.2288C39.4458 9.92576 39.1908 8.72083 38.6825 7.68803C38.1726 6.65524 37.4574 5.83962 36.5353 5.2444H36.5337ZM35.655 13.2252C35.4385 13.8253 35.105 14.3015 34.656 14.6554C34.207 15.0093 33.6297 15.1862 32.9241 15.1862C32.2185 15.1862 31.6108 15.0222 31.1746 14.6924C30.7368 14.3626 30.4225 13.9009 30.2301 13.3057C30.0377 12.7104 29.9415 12.0187 29.9415 11.2304C29.9415 10.4422 30.0377 9.7504 30.2301 9.15518C30.4225 8.55995 30.7288 8.09825 31.1506 7.76847C31.5707 7.43868 32.1223 7.27459 32.8038 7.27459C33.5335 7.27459 34.1332 7.45316 34.6014 7.81191C35.0697 8.16904 35.4176 8.64844 35.6421 9.24688C35.8666 9.84693 35.9789 10.5081 35.9789 11.232C35.9789 11.956 35.8715 12.63 35.655 13.2284V13.2252Z" fill="#252E49"/>
<path d="M45.5398 14.7578H42.5684V17.7388H45.5398V14.7578Z" fill="#252E49"/>
<path d="M6.5225 12.5977H3.28516C3.28516 13.3699 3.29309 14.0608 3.30896 14.669C3.32483 15.2787 3.49146 15.8773 3.80884 16.4664C4.15797 17.0952 4.66737 17.5505 5.33865 17.8339C6.00833 18.1173 6.77165 18.2669 7.62383 18.2876C8.4776 18.3067 9.34724 18.2335 10.2359 18.0663V15.3679C9.47419 15.4713 8.77912 15.5032 8.15387 15.4634C7.52703 15.4236 7.06999 15.1768 6.78593 14.7231C6.63517 14.4843 6.55424 14.1643 6.54154 13.7615C6.52885 13.3603 6.52409 13.0991 6.52409 12.5977L6.5225 12.5977Z" fill="#252E49"/>
<path fill-rule="evenodd" clip-rule="evenodd" d="M6.53122 0.746094H3.25763V4.00391H0V7.2775H3.25781V10.5353H6.53141V7.2775H9.78727V4.00391H6.53141H6.53122V0.746094Z" fill="#2563EB"/>
</svg>
